PathFileType	4	(X/Y/Z)	C:\Users\ebm\Documents\Erivelton\Erivelton2\wc7.trc
DataRate	CameraRate	NumFrames	NumMarkers	Units	OrigDataRate	OrigDataStartFrame	OrigNumFrames
150.00	150.00	      7	28	mm	150.00	563	      1125
Frame#	Time	IJ			PX			C7			T8			RAC			RAS			RPS			RAI			RPI			RLE			RME			RRS			RUS			R3M			R5M			LAC			LAS			LPS			LAI			LPI			LLE			LME			LRS			LUS			L3M			L5M			RW			LW			V_mid_elbow_r			V_mid_elbow_l			V_mid_wrist_r			V_mid_wrist_l			V_mid_trunk_low			V_mid_trunk_upp			
		X1	Y1	Z1	X2	Y2	Z2	X3	Y3	Z3	X4	Y4	Z4	X5	Y5	Z5	X6	Y6	Z6	X7	Y7	Z7	X8	Y8	Z8	X9	Y9	Z9	X10	Y10	Z10	X11	Y11	Z11	X12	Y12	Z12	X13	Y13	Z13	X14	Y14	Z14	X15	Y15	Z15	X16	Y16	Z16	X17	Y17	Z17	X18	Y18	Z18	X19	Y19	Z19	X20	Y20	Z20	X21	Y21	Z21	X22	Y22	Z22	X23	Y23	Z23	X24	Y24	Z24	X25	Y25	Z25	X26	Y26	Z26	X27	Y27	Z27	X28	Y28	Z28	

563	3.747	192.35573	983.19165	-11.41635	145.96396	826.77081	4.64572	101.08612	1122.63879	-10.27967	-20.62730	1005.03455	3.37053	159.23621	1049.05347	195.21799	78.29851	893.25348	284.94547	43.47336	929.02490	292.78638	37.45485	835.55493	318.72568	-1.97107	871.29657	327.04739	-29.89825	811.10791	351.28885	-68.53377	795.68207	280.07123	129.94263	598.97266	289.49530	90.39375	584.19940	334.04266	159.28632	524.92706	335.79477	121.35933	508.87827	339.68427	123.54644	1050.96191	-195.25694	40.71458	944.94696	-296.74496	-1.21835	961.47760	-278.53448	5.62643	888.68402	-343.64481	-43.15212	905.21204	-324.57376	-42.07945	818.39465	-383.89935	-95.37051	807.50635	-326.29636	94.10291	609.28094	-297.81635	61.73070	573.69104	-338.04865	138.49416	537.81750	-332.93329	100.15270	518.34290	-334.54861	14.33854	296.61761	311.52621	39.29458	298.23724	-317.06161	
564	3.753	201.51012	982.63672	-11.25717	153.80540	826.74603	4.89001	111.00920	1122.72412	-9.86562	-11.23493	1005.62750	3.70281	169.54753	1048.24255	195.55606	90.99268	890.92035	284.90289	55.85474	926.08527	293.85837	51.38689	832.26190	318.67511	11.54460	867.45276	327.95645	-15.53309	807.18060	352.04260	-55.99864	791.97577	281.22348	145.87306	596.01154	289.79929	106.77613	581.96826	335.02026	174.07707	520.99548	336.45413	135.69545	505.96432	340.41330	134.25017	1050.67126	-195.21939	53.01202	944.15521	-297.53720	10.65446	960.32715	-279.97787	19.24748	887.23773	-344.52988	-29.92512	903.20593	-326.16003	-27.58378	816.00342	-384.60394	-81.48685	804.95837	-327.85660	109.74937	608.10010	-297.30707	76.60823	571.86566	-337.02164	153.16080	535.29169	-332.37131	114.49301	516.37946	-333.72104	22.41274	296.80875	311.84656	47.43807	298.35846	-316.73303	
565	3.760	210.66107	982.34143	-10.95081	161.98083	827.01941	5.03316	120.93433	1122.99231	-9.41505	-1.77468	1006.33905	3.95049	180.02649	1047.27551	195.92531	103.73168	888.54144	285.12387	68.09803	923.22223	294.80170	65.26860	829.12012	318.88721	25.02002	863.62775	328.72052	-0.92226	802.96490	352.73212	-41.83641	787.59149	282.13614	161.79593	592.84717	290.41922	122.71486	579.21631	335.52762	188.89478	516.75214	337.17719	150.16959	502.71552	341.17090	144.90260	1050.50928	-195.00719	65.52892	943.11151	-298.23544	22.91638	959.21851	-281.70206	32.96302	885.40289	-345.10202	-16.63807	901.18604	-327.63553	-12.98792	813.48108	-385.09360	-67.60936	802.51910	-329.09293	125.40936	606.80658	-296.61008	91.86761	570.22839	-336.04984	168.20322	532.91052	-331.80734	129.11403	514.67767	-333.13998	30.55476	296.94635	312.17981	55.48542	298.45850	-316.37674	
566	3.767	219.91187	982.12189	-10.61269	170.17841	827.28040	5.19405	130.95575	1123.27515	-8.84284	7.69939	1007.12213	4.17741	190.48766	1046.31140	196.39307	116.42352	886.21832	285.45670	80.45099	920.22552	295.72256	78.96904	826.04138	319.15796	38.50719	859.72723	329.49371	13.80380	798.58167	353.32373	-27.39968	782.98291	282.99289	178.16553	589.17456	291.21246	138.38976	576.02649	336.05899	203.69112	512.19891	338.06213	164.67691	499.09775	341.99722	155.39545	1050.53699	-194.70380	77.53867	940.62799	-295.93640	35.24648	957.92664	-283.35358	46.82473	883.22626	-345.38742	-3.13153	898.95667	-329.00693	1.56994	810.96704	-385.31021	-53.60458	800.11414	-330.08481	141.18256	605.27838	-295.55414	107.62067	568.91217	-335.15839	183.36615	530.52802	-331.19608	144.23016	512.23511	-331.88940	38.85497	297.02805	312.57150	63.57864	298.51520	-315.99948	
567	3.773	229.49973	981.89301	-10.43136	178.43396	827.61377	5.40748	140.85327	1123.65283	-8.23335	17.13020	1008.02753	4.38109	200.89442	1045.33850	196.87740	129.20760	883.91254	285.62067	92.69509	917.20221	296.53702	92.98011	822.85333	319.33871	52.19319	855.70319	330.07263	28.73957	794.03845	353.63678	-12.72890	778.09412	283.79803	194.44601	585.25122	291.93781	154.35527	572.45172	336.86124	218.58928	507.35953	338.98468	179.31651	495.24918	342.83511	165.80144	1050.65051	-194.21581	90.40933	939.05450	-296.58698	47.81338	956.54572	-285.01065	60.94209	880.58411	-345.21729	10.60131	896.52484	-330.33118	16.38077	808.25116	-385.26126	-39.59694	797.64490	-330.80746	156.97502	603.58429	-294.22858	123.63530	567.57288	-334.37448	198.52832	527.96088	-330.61578	158.93721	510.62897	-331.56992	47.28006	297.02975	313.01837	71.85330	298.59415	-315.56583	
568	3.780	238.37100	982.05261	-9.77220	186.74545	827.99164	5.36806	150.80211	1124.09619	-7.67223	26.54726	1008.96576	4.56245	211.10403	1044.48767	197.40829	142.33714	881.43988	285.52713	105.28154	914.00818	297.13464	107.65240	819.39349	319.13431	66.01999	851.59100	330.48038	43.89862	789.39972	353.72403	2.34840	773.15625	284.94473	210.92773	580.86743	292.72189	170.08421	568.54175	337.65033	233.76465	502.22324	339.88956	194.29950	491.05878	343.64145	176.06221	1050.93311	-193.79552	103.51579	937.22089	-297.04886	60.45591	954.94446	-286.69235	75.24009	877.62134	-344.74829	24.54493	893.78955	-331.54077	31.25280	805.52014	-384.89523	-25.33763	795.00244	-331.33411	172.93716	601.55499	-292.69681	139.72278	566.00696	-333.52069	213.81166	525.10077	-329.85233	173.62234	509.07654	-331.67712	55.82300	297.03143	313.50296	80.26240	298.65439	-315.13889	
569	3.787	247.48260	982.27948	-9.37819	195.24158	828.48560	5.55811	160.57957	1124.63062	-7.11413	35.88895	1009.94952	4.80598	221.27321	1043.71875	197.86150	155.42439	878.93683	285.25418	117.81918	910.79761	297.55234	122.26392	816.10242	318.73166	80.08865	847.41217	330.67102	59.34529	784.67542	353.53915	17.55633	768.11053	285.50269	227.65665	576.27795	293.49557	186.66562	564.27777	337.92993	248.86908	496.96689	340.81512	209.31795	486.90826	344.64471	186.27097	1051.23596	-193.20619	116.63387	935.22021	-297.32492	73.19409	953.05078	-288.27756	89.47917	874.18073	-343.77997	38.79935	890.88446	-332.76038	46.24163	802.59509	-384.22855	-10.88724	792.06732	-331.56952	189.22626	599.33405	-291.36676	155.92802	564.18542	-332.65970	229.34178	521.76892	-329.02835	188.72331	506.65070	-331.02686	64.52351	297.01773	313.93994	88.54929	298.73654	-314.74564	
